<svg width="20" height="20" viewBox="0 0 20 20" fill="none" xmlns="http://www.w3.org/2000/svg">
<g clip-path="url(#clip0_86_177)">
<path d="M9.9925 0L9.24875 0.9875C9.1069 1.17515 9.0411 1.40942 9.06451 1.64349C9.08791 1.87755 9.1988 2.09416 9.375 2.25V4.98375H6.25C5.58696 4.98375 4.95107 5.24714 4.48223 5.71598C4.01339 6.18482 3.75 6.82071 3.75 7.48375V11.2338H2.5C1.83696 11.2338 1.20107 11.4971 0.732233 11.966C0.263392 12.4348 0 13.0707 0 13.7338L0 18.7338C0 19.0653 0.131696 19.3832 0.366117 19.6176C0.600537 19.8521 0.918479 19.9838 1.25 19.9838H18.75C19.0815 19.9838 19.3995 19.8521 19.6339 19.6176C19.8683 19.3832 20 19.0653 20 18.7338V13.7338C20 13.0707 19.7366 12.4348 19.2678 11.966C18.7989 11.4971 18.163 11.2338 17.5 11.2338H16.25V7.48375C16.25 6.82071 15.9866 6.18482 15.5178 5.71598C15.0489 5.24714 14.413 4.98375 13.75 4.98375H10.625V2.24125C10.7974 2.08422 10.9049 1.86833 10.9262 1.63608C10.9474 1.40382 10.881 1.17201 10.74 0.98625L9.9925 0ZM5 7.48375C5 7.15223 5.1317 6.83429 5.36612 6.59987C5.60054 6.36545 5.91848 6.23375 6.25 6.23375H13.75C14.0815 6.23375 14.3995 6.36545 14.6339 6.59987C14.8683 6.83429 15 7.15223 15 7.48375V8.00125C14.8499 8.00212 14.7011 7.97293 14.5624 7.9154C14.4237 7.85786 14.2979 7.77315 14.1925 7.66625C13.9703 7.44386 13.7065 7.26744 13.4161 7.14708C13.1256 7.02671 12.8144 6.96476 12.5 6.96476C12.1856 6.96476 11.8744 7.02671 11.5839 7.14708C11.2935 7.26744 11.0297 7.44386 10.8075 7.66625C10.5933 7.88028 10.3028 8.00051 10 8.00051C9.69717 8.00051 9.40673 7.88028 9.1925 7.66625C8.97031 7.44386 8.70647 7.26744 8.41606 7.14708C8.12565 7.02671 7.81437 6.96476 7.5 6.96476C7.18563 6.96476 6.87435 7.02671 6.58394 7.14708C6.29353 7.26744 6.02969 7.44386 5.8075 7.66625C5.70207 7.77315 5.5763 7.85786 5.43762 7.9154C5.29894 7.97293 5.15014 8.00212 5 8.00125V7.48375ZM5 9.25125C5.6125 9.25125 6.225 9.0175 6.6925 8.55125C6.90673 8.33722 7.19717 8.21699 7.5 8.21699C7.80283 8.21699 8.09327 8.33722 8.3075 8.55125C9.2425 9.485 10.7575 9.485 11.6925 8.55125C11.9067 8.33722 12.1972 8.21699 12.5 8.21699C12.8028 8.21699 13.0933 8.33722 13.3075 8.55125C13.775 9.0175 14.3875 9.25125 15 9.25125V11.2338H5V9.25125ZM1.25 13.7338C1.25 13.4022 1.3817 13.0843 1.61612 12.8499C1.85054 12.6154 2.16848 12.4838 2.5 12.4838H17.5C17.8315 12.4838 18.1495 12.6154 18.3839 12.8499C18.6183 13.0843 18.75 13.4022 18.75 13.7338V14.725L18.3075 15.1675C18.2014 15.2737 18.0754 15.3579 17.9368 15.4153C17.7981 15.4728 17.6495 15.5024 17.4994 15.5024C17.3493 15.5024 17.2007 15.4728 17.062 15.4153C16.9233 15.3579 16.7973 15.2737 16.6912 15.1675C16.4691 14.9453 16.2053 14.769 15.915 14.6488C15.6247 14.5285 15.3136 14.4666 14.9994 14.4666C14.6852 14.4666 14.374 14.5285 14.0837 14.6488C13.7934 14.769 13.5297 14.9453 13.3075 15.1675C13.0933 15.3815 12.8028 15.5018 12.5 15.5018C12.1972 15.5018 11.9067 15.3815 11.6925 15.1675C11.4703 14.9451 11.2065 14.7687 10.9161 14.6483C10.6256 14.528 10.3144 14.466 10 14.466C9.68563 14.466 9.37435 14.528 9.08394 14.6483C8.79353 14.7687 8.52969 14.9451 8.3075 15.1675C8.09327 15.3815 7.80283 15.5018 7.5 15.5018C7.19717 15.5018 6.90673 15.3815 6.6925 15.1675C6.47031 14.9451 6.20647 14.7687 5.91606 14.6483C5.62565 14.528 5.31437 14.466 5 14.466C4.68563 14.466 4.37435 14.528 4.08394 14.6483C3.79353 14.7687 3.52969 14.9451 3.3075 15.1675C3.09327 15.3815 2.80283 15.5018 2.5 15.5018C2.19717 15.5018 1.90673 15.3815 1.6925 15.1675L1.25 14.725V13.7338ZM15.8075 16.0513C16.1876 16.4313 16.6845 16.6724 17.2183 16.7356C17.7521 16.7989 18.2916 16.6807 18.75 16.4V18.7338H1.25V16.4C2.17125 16.965 3.39375 16.85 4.1925 16.05C4.40673 15.836 4.69717 15.7157 5 15.7157C5.30283 15.7157 5.59327 15.836 5.8075 16.05C6.7425 16.985 8.2575 16.985 9.1925 16.05C9.40673 15.836 9.69717 15.7157 10 15.7157C10.3028 15.7157 10.5933 15.836 10.8075 16.05C11.7425 16.985 13.2575 16.985 14.1912 16.05C14.2973 15.9438 14.4233 15.8596 14.562 15.8022C14.7007 15.7447 14.8493 15.7151 14.9994 15.7151C15.1495 15.7151 15.2981 15.7447 15.4368 15.8022C15.5754 15.8596 15.7014 15.9438 15.8075 16.05V16.0513Z" fill="#F6E3EF"/>
</g>
<defs>
<clipPath id="clip0_86_177">
<rect width="20" height="20" fill="white"/>
</clipPath>
</defs>
</svg>
