<svg width="75" height="75" viewBox="0 0 75 75" fill="none" xmlns="http://www.w3.org/2000/svg">
<g clip-path="url(#clip0_138_3)">
<path d="M0.242621 47.4701C0.931549 50.0839 2.97545 51.7822 4.61728 53.1463C5.49542 53.8757 6.40331 54.631 6.76265 55.2543C7.13496 55.8944 7.34095 57.0793 7.54236 58.2244C7.92536 60.4118 8.35794 62.8898 10.2271 64.7728C12.1062 66.6526 14.7017 67.1028 16.7876 67.4652C17.9282 67.662 19.1084 67.868 19.7501 68.2388C20.3688 68.5966 21.1233 69.5037 21.8535 70.3819C23.2176 72.0245 24.9159 74.0684 27.5175 74.7543C30.0313 75.4303 32.3781 74.5712 34.4487 73.8136C35.5626 73.4054 36.7139 72.985 37.5005 72.985C38.2863 72.985 39.4375 73.4069 40.5514 73.8136C42.0956 74.3789 43.7924 74.9992 45.5952 74.9992C46.2093 74.9992 46.8342 74.9275 47.4705 74.7573C50.0843 74.0684 51.7826 72.0245 53.1467 70.3819C53.8768 69.5037 54.6314 68.5966 55.2547 68.2365C55.8955 67.865 57.0796 67.659 58.2248 67.4575C60.4121 67.0745 62.8909 66.6412 64.773 64.7728C66.6529 62.8929 67.103 60.2981 67.4654 58.2122C67.6623 57.0709 67.8682 55.8914 68.239 55.2497C68.5968 54.631 69.5047 53.8757 70.3829 53.1463C72.0247 51.7822 74.0686 50.0839 74.7545 47.4823C75.4297 44.9653 74.5714 42.6216 73.8138 40.551C73.4064 39.4371 72.986 38.285 72.986 37.4992C72.986 36.7134 73.4079 35.5621 73.8138 34.4474C74.5699 32.3791 75.4297 30.0338 74.7575 27.5306C74.0686 24.9168 72.0247 23.2185 70.3829 21.8544C69.5047 21.1242 68.5968 20.3697 68.2375 19.7464C67.8652 19.1055 67.6592 17.9214 67.4578 16.7762C67.0748 14.5881 66.6422 12.1101 64.773 10.2272C62.8939 8.34804 60.2984 7.89791 58.2126 7.53551C57.072 7.33867 55.8925 7.13192 55.2501 6.76189C54.6314 6.40407 53.8768 5.49617 53.1467 4.61803C51.7826 2.97619 50.0843 0.932271 47.4827 0.246389C44.9673 -0.431865 42.622 0.427205 40.5514 1.18709C39.436 1.59603 38.2832 2.01641 37.4989 2.01641C36.7139 2.01641 35.5611 1.5945 34.4472 1.18862C32.3781 0.430257 30.0344 -0.425761 27.5297 0.244863C24.9159 0.933797 23.2176 2.97771 21.8535 4.61956C21.1233 5.4977 20.3688 6.4056 19.7455 6.76494C19.1046 7.13726 17.9205 7.34325 16.7754 7.54467C14.5881 7.92766 12.11 8.36025 10.2271 10.2287C8.34726 12.1086 7.89713 14.7041 7.53474 16.79C7.3379 17.9306 7.13191 19.1101 6.76112 19.7525C6.40331 20.3712 5.49542 21.1258 4.61728 21.8559C2.97545 23.22 0.931549 24.9183 0.245672 27.5199C-0.429524 30.0369 0.428776 32.3806 1.18637 34.4513C1.59454 35.5636 2.01415 36.7164 2.01415 37.5007C2.01415 38.285 1.59225 39.4386 1.18637 40.5525C0.428776 42.6216 -0.429524 44.9653 0.242621 47.4701ZM7.05485 32.3028C6.63753 31.1637 6.11949 29.7447 6.28658 29.1244C6.46434 28.4446 7.60493 27.4978 8.61123 26.6616C9.85176 25.6309 11.2578 24.4621 12.1718 22.879C13.0988 21.2791 13.4147 19.4603 13.6924 17.8588C13.9144 16.5794 14.1661 15.1275 14.6376 14.6576C15.1191 14.1792 16.5709 13.9259 17.8519 13.7008C19.4563 13.4201 21.2752 13.1027 22.872 12.1772C24.4612 11.2617 25.63 9.85561 26.6599 8.61507C27.4954 7.60875 28.4437 6.46816 29.1349 6.28505C29.7422 6.1256 31.1582 6.64135 32.2988 7.05867C33.8483 7.6263 35.6046 8.26793 37.4966 8.26793C39.3895 8.26793 41.1458 7.6263 42.6953 7.05867C43.8343 6.64135 45.2519 6.1195 45.8736 6.28963C46.5534 6.46816 47.5002 7.60875 48.3356 8.61507C49.3671 9.85561 50.5359 11.2617 52.119 12.1757C53.7189 13.1027 55.5377 13.4178 57.1391 13.6962C58.4186 13.9183 59.8704 14.17 60.3404 14.6415C60.8187 15.1229 61.072 16.5741 61.2971 17.8558C61.5779 19.4603 61.8952 21.2791 62.8199 22.8759C63.7362 24.4651 65.1423 25.634 66.3828 26.6632C67.3891 27.4993 68.5297 28.4477 68.7121 29.1381C68.8746 29.7462 68.3558 31.1637 67.9392 32.3028C67.3746 33.8523 66.733 35.6086 66.733 37.5007C66.733 39.3928 67.3746 41.1491 67.9423 42.6994C68.3596 43.8385 68.8776 45.2575 68.7105 45.8778C68.5328 46.5568 67.3922 47.5044 66.3859 48.3398C65.1453 49.3713 63.7393 50.5401 62.8253 52.1225C61.8983 53.7231 61.5824 55.5412 61.3047 57.1434C61.0827 58.4228 60.831 59.8747 60.3595 60.3447C59.8781 60.823 58.4262 61.0763 57.1452 61.3006C55.5408 61.5821 53.7219 61.8995 52.1251 62.8242C50.5359 63.7397 49.3671 65.1466 48.3372 66.3871C47.5018 67.3935 46.5534 68.534 45.8622 68.7164C45.2503 68.8743 43.8374 68.3601 42.6983 67.9428C41.1473 67.3774 39.391 66.735 37.4989 66.735C35.6061 66.735 33.8498 67.3774 32.3003 67.9451C31.1597 68.3616 29.7391 68.8789 29.1219 68.7133C28.4422 68.5356 27.4954 67.395 26.6599 66.3887C25.6285 65.1481 24.4596 63.7413 22.8766 62.8273C21.2767 61.9011 19.4579 61.5852 17.8565 61.3075C16.577 61.0855 15.1252 60.8337 14.6552 60.3622C14.1768 59.8808 13.9235 58.4289 13.6985 57.1479C13.4177 55.5435 13.1003 53.7246 12.1757 52.1278C11.2594 50.5386 9.85329 49.3698 8.61276 48.3398C7.60645 47.5044 6.46587 46.5553 6.28352 45.8648C6.12102 45.2575 6.63981 43.84 7.05638 42.7009C7.624 41.1506 8.26562 39.3943 8.26562 37.5023C8.26562 35.6102 7.62247 33.8523 7.05485 32.3028Z" fill="#6B1D3B"/>
<path d="M34.374 34.3758H40.6239V40.6258H34.374V34.3758Z" fill="#6B1D3B"/>
<path d="M46.8739 34.3758H53.1238V40.6258H46.8739V34.3758Z" fill="#6B1D3B"/>
<path d="M34.374 21.8758H40.6239V28.1258H34.374V21.8758Z" fill="#6B1D3B"/>
<path d="M34.374 46.8758H40.6239V53.1258H34.374V46.8758Z" fill="#6B1D3B"/>
<path d="M21.8741 34.3758H28.124V40.6258H21.8741V34.3758Z" fill="#6B1D3B"/>
<path d="M46.8739 21.8758H53.1238V28.1258H46.8739V21.8758Z" fill="#6B1D3B"/>
<path d="M46.8739 46.8758H53.1238V53.1258H46.8739V46.8758Z" fill="#6B1D3B"/>
<path d="M21.8741 46.8758H28.124V53.1258H21.8741V46.8758Z" fill="#6B1D3B"/>
<path d="M21.8741 21.8758H28.124V28.1258H21.8741V21.8758Z" fill="#6B1D3B"/>
</g>
<defs>
<clipPath id="clip0_138_3">
<rect width="75" height="75" fill="white"/>
</clipPath>
</defs>
</svg>
