<svg width="89" height="89" viewBox="0 0 89 89" fill="none" xmlns="http://www.w3.org/2000/svg">
<g clip-path="url(#clip0_82_67)">
<path d="M57.4792 7.41667C59.3921 7.41647 61.2815 7.83913 63.012 8.65438C64.7425 9.46964 66.2714 10.6574 67.4893 12.1325C68.7072 13.6077 69.584 15.3338 70.0569 17.1874C70.5298 19.041 70.5871 20.9762 70.2247 22.8545L70.1691 23.0992C73.3953 24.1754 76.2158 26.2112 78.2534 28.9343C80.2909 31.6573 81.4482 34.9377 81.5704 38.3364C81.6926 41.7352 80.7738 45.0902 78.9371 47.9525C77.1004 50.8149 74.4333 53.048 71.2927 54.353L67.2655 78.4832C67.1215 79.3491 66.675 80.1358 66.0055 80.7035C65.336 81.2712 64.4868 81.5829 63.609 81.5833H25.391C24.5132 81.5829 23.664 81.2712 22.9945 80.7035C22.3249 80.1358 21.8785 79.3491 21.7345 78.4832L17.9187 55.6028C15.3522 55.4572 12.9154 54.4273 11.0224 52.6883C9.12936 50.9492 7.89699 48.6083 7.53474 46.0634C7.17249 43.5185 7.70272 40.9266 9.0353 38.7284C10.3679 36.5302 12.4206 34.8613 14.8445 34.0054L14.8333 33.375C14.8326 29.6202 15.7821 25.9262 17.5935 22.6371C19.4048 19.3481 22.0191 16.5709 25.1928 14.5643C28.3665 12.5577 31.9964 11.3869 35.7445 11.161C39.4925 10.935 43.2368 11.6613 46.6286 13.2721C47.8089 11.472 49.4189 9.99419 51.3132 8.97192C53.2076 7.94966 55.3266 7.41516 57.4792 7.41667ZM33.375 55.625H25.4392L28.5319 74.1667H33.375V55.625ZM48.2083 55.625H40.7917V74.1667H48.2083V55.625ZM63.5571 55.625H55.625V74.1667H60.4644L63.5571 55.625ZM37.0833 18.5417C29.1401 18.5417 22.6542 24.7865 22.2685 32.511L22.25 33.2415L22.2611 33.8719C22.2873 35.3281 21.8842 36.7598 21.1021 37.9883C20.32 39.2169 19.1935 40.188 17.863 40.7805L17.3068 40.9993C16.4834 41.2925 15.7898 41.8669 15.3483 42.6212C14.9068 43.3756 14.7456 44.2615 14.8932 45.123C15.0408 45.9846 15.4876 46.7664 16.155 47.3307C16.8224 47.8951 17.6676 48.2059 18.5417 48.2083H64.8958C66.2665 48.2083 67.6202 47.9044 68.8593 47.3184C70.0984 46.7324 71.1922 45.8789 72.0618 44.8194C72.9314 43.7599 73.5553 42.5207 73.8885 41.1912C74.2217 39.8616 74.2559 38.4747 73.9887 37.1303C73.7215 35.7859 73.1595 34.5174 72.3432 33.4163C71.5269 32.3152 70.4766 31.4088 69.2679 30.7624C68.0592 30.116 66.7222 29.7456 65.3532 29.678C63.9842 29.6103 62.6172 29.8471 61.3507 30.3713L60.7017 30.6716C58.9906 31.5534 57.0036 31.7353 55.1608 31.1789C53.318 30.6225 51.7637 29.3715 50.8264 27.6901L50.5668 27.1821C49.3817 24.6027 47.4813 22.4175 45.0913 20.8859C42.7013 19.3544 39.922 18.5408 37.0833 18.5417ZM57.4792 14.8333C56.5179 14.8331 55.5729 15.0821 54.7365 15.5559C53.9 16.0296 53.2006 16.7121 52.7065 17.5367C54.6214 19.422 56.1793 21.6382 57.3049 24.0782C58.9514 23.2327 60.7536 22.6542 62.6671 22.3983C62.9922 21.5558 63.1073 20.6467 63.0024 19.7497C62.8975 18.8527 62.5758 17.9947 62.065 17.2499C61.5542 16.5051 60.8697 15.8958 60.0708 15.4748C59.2718 15.0538 58.3823 14.8336 57.4792 14.8333Z" fill="#6B1D3B"/>
</g>
<defs>
<clipPath id="clip0_82_67">
<rect width="89" height="89" fill="white"/>
</clipPath>
</defs>
</svg>
