<svg width="40" height="40" viewBox="0 0 40 40" fill="none" xmlns="http://www.w3.org/2000/svg">
<path d="M7.5 23.75C6.50544 23.75 5.55161 23.3549 4.84835 22.6517C4.14509 21.9484 3.75 20.9946 3.75 20C3.75 19.0054 4.14509 18.0516 4.84835 17.3483C5.55161 16.6451 6.50544 16.25 7.5 16.25C8.49456 16.25 9.44839 16.6451 10.1517 17.3483C10.8549 18.0516 11.25 19.0054 11.25 20C11.25 20.9946 10.8549 21.9484 10.1517 22.6517C9.44839 23.3549 8.49456 23.75 7.5 23.75ZM20 23.75C19.0054 23.75 18.0516 23.3549 17.3483 22.6517C16.6451 21.9484 16.25 20.9946 16.25 20C16.25 19.0054 16.6451 18.0516 17.3483 17.3483C18.0516 16.6451 19.0054 16.25 20 16.25C20.9946 16.25 21.9484 16.6451 22.6517 17.3483C23.3549 18.0516 23.75 19.0054 23.75 20C23.75 20.9946 23.3549 21.9484 22.6517 22.6517C21.9484 23.3549 20.9946 23.75 20 23.75ZM32.5 23.75C31.5054 23.75 30.5516 23.3549 29.8483 22.6517C29.1451 21.9484 28.75 20.9946 28.75 20C28.75 19.0054 29.1451 18.0516 29.8483 17.3483C30.5516 16.6451 31.5054 16.25 32.5 16.25C33.4946 16.25 34.4484 16.6451 35.1517 17.3483C35.8549 18.0516 36.25 19.0054 36.25 20C36.25 20.9946 35.8549 21.9484 35.1517 22.6517C34.4484 23.3549 33.4946 23.75 32.5 23.75Z" fill="#6B1D3B"/>
</svg>
