<svg width="89" height="80" viewBox="0 0 89 80" fill="none" xmlns="http://www.w3.org/2000/svg">
<g clip-path="url(#clip0_94_262)">
<g clip-path="url(#clip1_94_262)">
<path d="M87.2099 51.2773C84.7478 46.5829 81.5232 42.1364 77.7096 38.1786C77.3544 35.1808 76.0978 32.2661 73.9308 29.8712C70.373 25.9417 65.5456 23.4405 60.3248 22.7517C58.4848 20.1288 55.4852 18.3619 51.9389 18.3619H37.0742C33.5282 18.3619 30.5285 20.1288 28.6879 22.7515C23.467 23.4401 18.6392 25.9413 15.082 29.8704C12.9148 32.2652 11.6582 35.1799 11.3028 38.1777C7.4883 42.1366 4.2571 46.595 1.71348 51.4358C-0.644527 55.4257 -0.579351 60.5927 1.97575 64.6724C5.19182 69.8282 12.0781 71.9258 17.6286 69.8382L31.77 64.1818C33.9163 64.87 36.1572 65.1639 38.4046 65.0484C41.5922 68.7323 47.4704 68.7499 50.6413 65.0513C52.9008 65.1657 55.1474 64.8706 57.2772 64.1957L71.3119 69.8103C76.9963 71.8888 83.8277 69.8165 87.0401 64.6667C89.5911 60.5931 89.6564 55.4259 87.2099 51.2773ZM68.4328 34.8478C69.6788 36.2246 70.3304 37.9413 70.3944 39.6738C70.3926 39.7313 70.3895 39.788 70.3902 39.8466C70.4095 41.2111 70.0726 42.5371 69.4138 43.7052C69.4072 43.7168 69.4012 43.7288 69.3945 43.7403C69.355 43.8093 69.3128 43.8769 69.2711 43.9449C69.2464 43.9848 69.2231 44.0253 69.1977 44.065C69.1798 44.0928 69.1605 44.1199 69.1423 44.1475C68.8925 44.5254 68.6071 44.8865 68.2832 45.2242L61.7653 52.0231L58.946 54.9628C58.0581 55.7185 57.0382 56.334 55.9172 56.7963C55.7696 56.8571 55.6314 56.9272 55.4981 57.0016C54.9332 57.2018 54.3468 57.3584 53.7463 57.4689L61.757 32.2661C61.9186 31.7574 62.0401 31.2476 62.1256 30.7396C64.5304 31.5391 66.7073 32.9418 68.4328 34.8478ZM26.8843 30.7403C26.9693 31.2471 27.0903 31.7556 27.2511 32.2631L35.2741 57.4575C34.5941 57.3275 33.9279 57.1344 33.2833 56.8832C33.2209 56.8537 33.1592 56.8234 33.094 56.7967C32.1232 56.3962 31.2284 55.8805 30.4291 55.2587C30.4089 55.2428 30.3888 55.2269 30.3686 55.2109C30.2843 55.1443 30.2014 55.0763 30.1194 55.0073C30.0985 54.9898 30.0778 54.9724 30.0571 54.9547L21.8843 46.4327L20.7294 45.2253C20.3222 44.8009 19.9753 44.3399 19.6852 43.8541C19.6652 43.8204 19.6438 43.7872 19.6244 43.7532C19.6004 43.7116 19.5787 43.6692 19.5555 43.6273C19.5175 43.5582 19.4791 43.4892 19.4434 43.4188C19.4358 43.4038 19.429 43.3885 19.4214 43.3736C18.8793 42.2889 18.6036 41.0837 18.6212 39.8466C18.622 39.7904 18.6187 39.7362 18.6172 39.6809C18.6796 37.9458 19.3315 36.226 20.5796 34.8469C22.3046 32.9422 24.4806 31.5396 26.8843 30.7403ZM14.9457 62.9255C12.6882 63.7737 9.5604 62.8211 8.26382 60.7424C7.17615 59.0057 7.14851 56.8092 8.18925 55.0442C9.63374 52.3005 11.2863 49.7397 13.1423 47.3568C13.1493 47.3692 13.1569 47.3813 13.1639 47.3937C13.2035 47.4632 13.2445 47.532 13.2852 47.601C13.3615 47.7305 13.4401 47.8588 13.5204 47.9862C13.548 48.0298 13.5746 48.0739 13.6027 48.1174C13.7162 48.2931 13.8344 48.4662 13.9557 48.6376C13.9768 48.6673 13.9981 48.6967 14.0195 48.7262C14.2877 49.0994 14.5741 49.4618 14.8786 49.8123C14.8804 49.8142 14.8821 49.8163 14.8837 49.8182C15.0427 50.0011 15.2049 50.1815 15.3736 50.3576L22.8601 58.164L23.9657 59.3172L14.9457 62.9255ZM43.8678 59.9416C43.8423 59.8631 43.8146 59.7847 43.7835 59.7067C43.762 59.6545 34.3199 29.9321 34.3199 29.9321C34.2006 29.5558 34.1473 29.1743 34.1534 28.798C34.2217 27.1439 35.4781 25.7778 37.0743 25.7778H51.9389C53.543 25.7778 54.8034 27.1564 54.8583 28.8232C54.8616 29.1917 54.8086 29.5652 54.6917 29.9341L45.2729 59.6001C45.22 59.7319 45.1755 59.8641 45.1375 59.9966C44.8316 60.551 44.1735 60.5381 43.8678 59.9416ZM80.7512 60.7368C79.4546 62.8155 76.3484 63.7577 73.9608 62.8855L65.0447 59.3175L73.6367 50.3584C73.8021 50.1857 73.9615 50.0087 74.1176 49.8295C74.1263 49.8195 74.135 49.8095 74.1438 49.7995C74.4388 49.4592 74.7167 49.1077 74.9774 48.7462C75.0077 48.7043 75.0381 48.6624 75.068 48.6202C75.1818 48.4587 75.2932 48.2957 75.4003 48.1304C75.4402 48.0689 75.4781 48.0063 75.5171 47.9445C75.5826 47.8398 75.6471 47.7347 75.71 47.6287C75.7604 47.544 75.8106 47.4592 75.8591 47.3739C75.8628 47.3676 75.8666 47.3613 75.8701 47.3551L75.9173 47.4157C77.7416 49.7619 79.354 52.2602 80.7336 54.8857C81.863 56.8092 81.8352 59.0059 80.7512 60.7368Z" fill="#6B1D3B"/>
</g>
</g>
<defs>
<clipPath id="clip0_94_262">
<rect width="89" height="80" fill="white"/>
</clipPath>
<clipPath id="clip1_94_262">
<rect width="89" height="89" fill="white"/>
</clipPath>
</defs>
</svg>
