<svg width="89" height="89" viewBox="0 0 89 89" fill="none" xmlns="http://www.w3.org/2000/svg">
<g clip-path="url(#clip0_80_10)">
<path d="M69.5052 43.5584H67.6821V38.3393C67.6821 33.7255 63.8955 30.0093 59.2817 30.0093H55.3167C57.8172 26.4656 59.2403 22.3151 59.2403 17.902C59.2403 10.7458 55.5031 4.05174 49.4869 0.446896C48.4974 -0.145857 47.2621 -0.15055 46.2726 0.442377C41.9676 3.02198 38.8302 7.17664 37.3933 11.9546C32.6908 10.2876 27.4831 10.3579 22.857 12.3039C21.7938 12.7511 21.0633 13.7468 20.9562 14.8951C20.4354 20.4783 22.3496 26.0498 26.0933 30.2229C22.4573 31.1325 19.7392 34.4259 19.7392 38.3396V43.5588H17.9161C12.9151 43.5588 8.9 47.617 8.9 52.6182V85.8737C8.9 87.6005 10.2461 89.0003 11.9731 89.0003H75.4484C77.1752 89.0003 78.5215 87.6005 78.5215 85.8737V52.6178C78.5213 47.6168 74.5062 43.5584 69.5052 43.5584ZM47.8797 6.93484C51.0694 9.55495 52.9869 13.5921 52.9869 17.8837C52.9869 20.4899 52.2761 22.9998 51.0065 25.1579V22.7141C51.0065 20.9873 49.6065 19.5874 47.8798 19.5874C46.153 19.5874 44.7532 20.9874 44.7532 22.7141V25.1579C43.4836 22.9998 42.7728 20.4899 42.7728 17.8837C42.7726 13.5919 44.6901 9.55495 47.8797 6.93484ZM36.5266 18.3656C36.6226 22.611 38.0297 26.6742 40.4428 30.0094H36.6078C35.3215 29.5926 34.0875 28.8841 32.9543 28.053C29.4934 25.5149 27.3723 21.5811 27.1457 17.4596C30.2433 16.668 33.5738 16.999 36.5266 18.3656ZM25.9927 38.3394C25.9927 37.1739 26.9741 36.2629 28.1396 36.2629H59.2815C60.4472 36.2629 61.4285 37.1738 61.4285 38.3394V43.5586H25.9927V38.3394ZM72.268 82.7467H15.1535V74.2126C16.821 75.1223 18.9172 75.6307 20.9614 75.6307C23.7364 75.6307 26.4418 74.699 28.5938 73.0887C30.7288 74.6514 33.4266 75.5542 36.2036 75.5542C38.9256 75.5542 41.589 74.6648 43.7167 73.1243C45.8447 74.6834 48.51 75.5838 51.2262 75.5838C54.0001 75.5838 56.7068 74.6715 58.8475 73.093C60.9986 74.7006 63.6879 75.6307 66.4605 75.6307C68.5047 75.6307 70.6003 75.1224 72.268 74.2126V82.7467ZM72.268 66.1766C72.0596 66.3806 71.7151 66.6393 71.4931 66.9458C70.6801 68.0675 68.8878 69.3773 66.4735 69.3773C64.0596 69.3773 62.2601 68.0673 61.4473 66.9458C60.8592 66.1343 59.9245 65.654 58.9224 65.654H58.7894C57.7872 65.654 56.8459 66.1345 56.2576 66.9458C55.4605 68.0457 53.664 69.3302 51.2246 69.3302C48.9421 69.3302 47.2026 68.1413 46.3508 67.0687C45.8916 66.3631 45.158 65.8569 44.3033 65.6975C43.122 65.4767 41.9188 65.9529 41.2078 66.9216C40.4026 68.0191 38.607 69.3008 36.1969 69.3008C33.7417 69.3008 31.9513 68.0322 31.1639 66.9459C30.5758 66.1345 29.6344 65.6542 28.6321 65.6542H28.4991C27.4968 65.6542 26.5555 66.1345 25.9675 66.9459C25.1545 68.0676 23.3486 69.3774 20.9343 69.3774C18.52 69.3774 16.7412 68.0675 15.9282 66.9459C15.7062 66.6395 15.3617 66.3808 15.1533 66.1767V52.6182C15.1535 51.065 16.3633 49.8121 17.9163 49.8121H69.5052C71.0582 49.8121 72.268 51.065 72.268 52.618V66.1766Z" fill="#6B1D3B"/>
</g>
<defs>
<clipPath id="clip0_80_10">
<rect width="89" height="89" fill="white"/>
</clipPath>
</defs>
</svg>
