<svg width="20" height="20" viewBox="0 0 20 20" fill="none" xmlns="http://www.w3.org/2000/svg">
<g clip-path="url(#clip0_147_243)">
<path d="M7.41125 2.19626C7.45344 2.12583 7.48134 2.04779 7.49337 1.96659C7.50539 1.88538 7.50131 1.8026 7.48134 1.72298C7.46138 1.64335 7.42593 1.56844 7.37701 1.50251C7.32809 1.43659 7.26667 1.38094 7.19625 1.33876C7.12583 1.29657 7.04779 1.26866 6.96658 1.25664C6.88538 1.24461 6.8026 1.2487 6.72297 1.26866C6.64335 1.28863 6.56843 1.32408 6.50251 1.373C6.43658 1.42191 6.38094 1.48333 6.33875 1.55376L2.77125 7.50001H0.625C0.45924 7.50001 0.300269 7.56585 0.183058 7.68306C0.065848 7.80027 0 7.95925 0 8.12501L0 9.37501C0 9.54077 0.065848 9.69974 0.183058 9.81695C0.300269 9.93416 0.45924 10 0.625 10H1.40375L3.70875 18.07C3.76482 18.2663 3.88342 18.4389 4.04653 18.5616C4.20965 18.6844 4.40837 18.7505 4.6125 18.75H15.39C15.5939 18.7502 15.7924 18.684 15.9552 18.5613C16.1181 18.4385 16.2365 18.2661 16.2925 18.07L18.5963 10H19.375C19.5408 10 19.6997 9.93416 19.8169 9.81695C19.9342 9.69974 20 9.54077 20 9.37501V8.12501C20 7.95925 19.9342 7.80027 19.8169 7.68306C19.6997 7.56585 19.5408 7.50001 19.375 7.50001H17.2288L13.6625 1.55376C13.6203 1.48333 13.5647 1.42191 13.4987 1.373C13.4328 1.32408 13.3579 1.28863 13.2783 1.26866C13.1987 1.2487 13.1159 1.24461 13.0347 1.25664C12.9535 1.26866 12.8754 1.29657 12.805 1.33876C12.7346 1.38094 12.6732 1.43659 12.6242 1.50251C12.5753 1.56844 12.5399 1.64335 12.5199 1.72298C12.4999 1.8026 12.4959 1.88538 12.5079 1.96659C12.5199 2.04779 12.5478 2.12583 12.59 2.19626L15.7712 7.50001H4.22875L7.41125 2.19626ZM5 12.5C5 12.1685 5.1317 11.8505 5.36612 11.6161C5.60054 11.3817 5.91848 11.25 6.25 11.25C6.58152 11.25 6.89946 11.3817 7.13388 11.6161C7.3683 11.8505 7.5 12.1685 7.5 12.5V15C7.5 15.3315 7.3683 15.6495 7.13388 15.8839C6.89946 16.1183 6.58152 16.25 6.25 16.25C5.91848 16.25 5.60054 16.1183 5.36612 15.8839C5.1317 15.6495 5 15.3315 5 15V12.5ZM8.75 12.5C8.75 12.1685 8.8817 11.8505 9.11612 11.6161C9.35054 11.3817 9.66848 11.25 10 11.25C10.3315 11.25 10.6495 11.3817 10.8839 11.6161C11.1183 11.8505 11.25 12.1685 11.25 12.5V15C11.25 15.3315 11.1183 15.6495 10.8839 15.8839C10.6495 16.1183 10.3315 16.25 10 16.25C9.66848 16.25 9.35054 16.1183 9.11612 15.8839C8.8817 15.6495 8.75 15.3315 8.75 15V12.5ZM13.75 11.25C14.0815 11.25 14.3995 11.3817 14.6339 11.6161C14.8683 11.8505 15 12.1685 15 12.5V15C15 15.3315 14.8683 15.6495 14.6339 15.8839C14.3995 16.1183 14.0815 16.25 13.75 16.25C13.4185 16.25 13.1005 16.1183 12.8661 15.8839C12.6317 15.6495 12.5 15.3315 12.5 15V12.5C12.5 12.1685 12.6317 11.8505 12.8661 11.6161C13.1005 11.3817 13.4185 11.25 13.75 11.25Z" fill="#F6E3EF"/>
</g>
<defs>
<clipPath id="clip0_147_243">
<rect width="20" height="20" fill="white"/>
</clipPath>
</defs>
</svg>
