<svg width="20" height="20" viewBox="0 0 20 20" fill="none" xmlns="http://www.w3.org/2000/svg">
<g clip-path="url(#clip0_86_175)">
<path d="M3.14875 4.29375C3.38988 3.73125 3.79087 3.25193 4.30196 2.91528C4.81305 2.57862 5.41175 2.39945 6.02375 2.4H13.9762C15.2262 2.4 16.3562 3.145 16.8487 4.29375L17.8387 6.60374C17.9325 6.82249 18.1012 7.0025 18.3137 7.10875C18.9387 7.42125 19.3825 8.00249 19.52 8.68624L19.9387 10.785C19.9804 10.9867 20.0008 11.1908 20 11.3975V11.9137C20 12.9312 19.5125 13.8425 18.75 14.41V16.775C18.75 16.9408 18.6842 17.0997 18.5669 17.2169C18.4497 17.3341 18.2908 17.4 18.125 17.4H15.625C15.4592 17.4 15.3003 17.3341 15.1831 17.2169C15.0658 17.0997 15 16.9408 15 16.775V15.1025C13.385 15.1625 11.5688 15.2125 10 15.2125C8.43125 15.2125 6.615 15.1625 5 15.1025V16.775C5 16.9408 4.93415 17.0997 4.81694 17.2169C4.69973 17.3341 4.54076 17.4 4.375 17.4H1.875C1.70924 17.4 1.55027 17.3341 1.43306 17.2169C1.31585 17.0997 1.25 16.9408 1.25 16.775V14.41C0.4875 13.8425 0 12.9312 0 11.9137V11.3975C0.000209788 11.1918 0.020726 10.9866 0.06125 10.785L0.48 8.68499C0.6175 8.00249 1.06125 7.42 1.685 7.10875C1.89896 7.00268 2.06789 6.82354 2.16125 6.60374L3.15125 4.29375H3.14875ZM3.74875 12.4C4.08027 12.4 4.39821 12.2683 4.63263 12.0339C4.86705 11.7995 4.99875 11.4815 4.99875 11.15C4.99875 10.8185 4.86705 10.5005 4.63263 10.2661C4.39821 10.0317 4.08027 9.89999 3.74875 9.89999C3.41723 9.89999 3.09929 10.0317 2.86487 10.2661C2.63045 10.5005 2.49875 10.8185 2.49875 11.15C2.49875 11.4815 2.63045 11.7995 2.86487 12.0339C3.09929 12.2683 3.41723 12.4 3.74875 12.4ZM16.2487 12.4C16.5803 12.4 16.8982 12.2683 17.1326 12.0339C17.3671 11.7995 17.4987 11.4815 17.4987 11.15C17.4987 10.8185 17.3671 10.5005 17.1326 10.2661C16.8982 10.0317 16.5803 9.89999 16.2487 9.89999C15.9172 9.89999 15.5993 10.0317 15.3649 10.2661C15.1304 10.5005 14.9987 10.8185 14.9987 11.15C14.9987 11.4815 15.1304 11.7995 15.3649 12.0339C15.5993 12.2683 15.9172 12.4 16.2487 12.4ZM7.49875 9.89999C7.16723 9.89999 6.84929 10.0317 6.61487 10.2661C6.38045 10.5005 6.24875 10.8185 6.24875 11.15C6.24875 11.4815 6.38045 11.7995 6.61487 12.0339C6.84929 12.2683 7.16723 12.4 7.49875 12.4H12.4987C12.8303 12.4 13.1482 12.2683 13.3826 12.0339C13.6171 11.7995 13.7487 11.4815 13.7487 11.15C13.7487 10.8185 13.6171 10.5005 13.3826 10.2661C13.1482 10.0317 12.8303 9.89999 12.4987 9.89999H7.49875ZM3.63125 6.38625C3.58239 6.48706 3.56096 6.59898 3.56912 6.71071C3.57728 6.82245 3.61475 6.93006 3.67774 7.02271C3.74073 7.11535 3.82702 7.18977 3.92792 7.23845C4.02883 7.28713 4.14078 7.30836 4.2525 7.3C5.39 7.20875 8.44 7.08749 9.99875 7.08749C11.5575 7.08749 14.6087 7.20875 15.745 7.3C15.8567 7.30836 15.9687 7.28713 16.0696 7.23845C16.1705 7.18977 16.2568 7.11535 16.3198 7.02271C16.3828 6.93006 16.4202 6.82245 16.4284 6.71071C16.4365 6.59898 16.4151 6.48706 16.3662 6.38625L15.1712 3.995C15.1193 3.89131 15.0395 3.80413 14.9408 3.7432C14.8422 3.68227 14.7285 3.65 14.6125 3.65H5.385C5.26903 3.65 5.15534 3.68227 5.05666 3.7432C4.95799 3.80413 4.87821 3.89131 4.82625 3.995L3.63125 6.38625Z" fill="#F6E3EF"/>
</g>
<defs>
<clipPath id="clip0_86_175">
<rect width="20" height="20" fill="white"/>
</clipPath>
</defs>
</svg>
