<svg width="20" height="20" viewBox="0 0 20 20" fill="none" xmlns="http://www.w3.org/2000/svg">
<path d="M10.8837 1.87499C10.6493 1.64065 10.3315 1.509 10 1.509C9.66854 1.509 9.35066 1.64065 9.11625 1.87499L0.807496 10.1825C0.749386 10.2406 0.703291 10.3096 0.671842 10.3855C0.640393 10.4614 0.624207 10.5428 0.624207 10.625C0.624207 10.7072 0.640393 10.7885 0.671842 10.8645C0.703291 10.9404 0.749386 11.0094 0.807496 11.0675C0.924854 11.1848 1.08403 11.2508 1.25 11.2508C1.33218 11.2508 1.41355 11.2346 1.48948 11.2031C1.5654 11.1717 1.63439 11.1256 1.6925 11.0675L2.5 10.2587V16.875C2.5 17.3723 2.69754 17.8492 3.04917 18.2008C3.4008 18.5524 3.87771 18.75 4.375 18.75H15.625C16.1223 18.75 16.5992 18.5524 16.9508 18.2008C17.3025 17.8492 17.5 17.3723 17.5 16.875V10.2587L18.3075 11.0675C18.4249 11.1848 18.584 11.2508 18.75 11.2508C18.916 11.2508 19.0751 11.1848 19.1925 11.0675C19.3099 10.9501 19.3758 10.791 19.3758 10.625C19.3758 10.459 19.3099 10.2998 19.1925 10.1825L16.25 7.24124V3.12499C16.25 2.95923 16.1841 2.80025 16.0669 2.68304C15.9497 2.56583 15.7908 2.49999 15.625 2.49999H14.375C14.2092 2.49999 14.0503 2.56583 13.9331 2.68304C13.8158 2.80025 13.75 2.95923 13.75 3.12499V4.74124L10.8837 1.87499ZM16.25 9.00874V16.875C16.25 17.0407 16.1841 17.1997 16.0669 17.3169C15.9497 17.4341 15.7908 17.5 15.625 17.5H4.375C4.20924 17.5 4.05026 17.4341 3.93305 17.3169C3.81584 17.1997 3.75 17.0407 3.75 16.875V9.00874L10 2.75874L16.25 9.00874Z" fill="#F6E3EF"/>
</svg>
