<svg width="20" height="23" viewBox="0 0 20 23" fill="none" xmlns="http://www.w3.org/2000/svg">
<path fill-rule="evenodd" clip-rule="evenodd" d="M5.625 5.03125C5.625 4.84062 5.70073 4.6578 5.83552 4.52302C5.9703 4.38823 6.15312 4.3125 6.34375 4.3125H17.8438C18.0344 4.3125 18.2172 4.38823 18.352 4.52302C18.4867 4.6578 18.5625 4.84062 18.5625 5.03125V17.9688C18.5625 18.1594 18.4867 18.3422 18.352 18.477C18.2172 18.6117 18.0344 18.6875 17.8438 18.6875H6.34375C6.15312 18.6875 5.9703 18.6117 5.83552 18.477C5.70073 18.3422 5.625 18.1594 5.625 17.9688V15.0938C5.625 14.9031 5.54927 14.7203 5.41448 14.5855C5.2797 14.4508 5.09688 14.375 4.90625 14.375C4.71562 14.375 4.5328 14.4508 4.39802 14.5855C4.26323 14.7203 4.1875 14.9031 4.1875 15.0938V17.9688C4.1875 18.5406 4.41468 19.0891 4.81905 19.4935C5.22342 19.8979 5.77188 20.125 6.34375 20.125H17.8438C18.4156 20.125 18.9641 19.8979 19.3685 19.4935C19.7729 19.0891 20 18.5406 20 17.9688V5.03125C20 4.45938 19.7729 3.91092 19.3685 3.50655C18.9641 3.10218 18.4156 2.875 17.8438 2.875H6.34375C5.77188 2.875 5.22342 3.10218 4.81905 3.50655C4.41468 3.91092 4.1875 4.45938 4.1875 5.03125V7.90625C4.1875 8.09688 4.26323 8.2797 4.39802 8.41448C4.5328 8.54927 4.71562 8.625 4.90625 8.625C5.09688 8.625 5.2797 8.54927 5.41448 8.41448C5.54927 8.2797 5.625 8.09688 5.625 7.90625V5.03125Z" fill="#F6E3EF"/>
<path fill-rule="evenodd" clip-rule="evenodd" d="M14.0401 12.0089C14.1071 11.9421 14.1602 11.8628 14.1964 11.7755C14.2326 11.6881 14.2513 11.5945 14.2513 11.5C14.2513 11.4054 14.2326 11.3118 14.1964 11.2245C14.1602 11.1372 14.1071 11.0579 14.0401 10.9911L9.72762 6.67861C9.6608 6.61179 9.58146 6.55877 9.49415 6.52262C9.40683 6.48645 9.31325 6.46783 9.21875 6.46783C9.12425 6.46783 9.03067 6.48645 8.94335 6.52262C8.85604 6.55877 8.7767 6.61179 8.70988 6.67861C8.64305 6.74544 8.59005 6.82478 8.55388 6.91208C8.51771 6.99939 8.49909 7.09297 8.49909 7.18749C8.49909 7.28199 8.51771 7.37557 8.55388 7.46289C8.59005 7.5502 8.64305 7.62954 8.70988 7.69637L11.7962 10.7812H-0.84375C-1.03438 10.7812 -1.2172 10.857 -1.35198 10.9918C-1.48677 11.1265 -1.5625 11.3094 -1.5625 11.5C-1.5625 11.6906 -1.48677 11.8734 -1.35198 12.0082C-1.2172 12.143 -1.03438 12.2187 -0.84375 12.2187H11.7962L8.70988 15.3036C8.64305 15.3705 8.59005 15.4498 8.55388 15.5371C8.51771 15.6245 8.49909 15.718 8.49909 15.8125C8.49909 15.9069 8.51771 16.0005 8.55388 16.0879C8.59005 16.1752 8.64305 16.2545 8.70988 16.3214C8.7767 16.3882 8.85604 16.4413 8.94335 16.4773C9.03067 16.5136 9.12425 16.5321 9.21875 16.5321C9.31325 16.5321 9.40683 16.5136 9.49415 16.4773C9.58146 16.4413 9.6608 16.3882 9.72762 16.3214L14.0401 12.0089Z" fill="#F6E3EF"/>
</svg>
